<svg width="165" height="49" viewBox="0 0 165 49" fill="none" xmlns="http://www.w3.org/2000/svg">
<path d="M7.05845 35.3437V47.9431L0 48.0005V8.94626L7.05845 8.88888V10.9548C7.05845 12.6763 6.08289 14.6848 5.50903 16.349L6.71413 16.7507C7.28799 15.0865 7.57492 12.7337 8.72264 11.5286C10.8459 9.29058 13.83 7.9707 17.6748 7.9707C26.2827 7.9707 32.1934 14.6275 32.0213 23.1205C31.7917 31.3841 25.9957 38.4425 17.6748 38.4425C13.8874 38.4425 10.9033 36.9505 8.78002 34.7125C7.57492 33.5074 7.28799 31.1546 6.71413 29.5477L5.50903 29.9494C6.0255 31.6136 7.05845 33.6221 7.05845 35.3437ZM16.6993 14.5127C11.3624 14.5127 8.32094 18.1854 8.32094 23.0058C8.32094 27.8836 11.3624 31.9006 16.6993 31.9006C22.0935 31.9006 24.9628 27.8836 24.9628 23.0058C24.9628 18.1854 22.0935 14.5127 16.6993 14.5127Z" fill="#111111"/>
<path d="M57.4813 34.6551C55.358 37.0079 52.374 38.4425 48.5291 38.4425C39.9786 38.4425 33.9531 31.5563 33.9531 23.0058C33.9531 14.4553 39.9786 7.9707 48.5291 7.9707C52.374 7.9707 55.358 9.29058 57.4239 11.5286C58.629 12.7911 58.8585 15.1439 59.4324 16.8081L60.6375 16.4064C60.121 14.7422 59.0881 12.7337 59.0881 11.0122L59.0307 8.83149H66.0891V37.5244H59.0307L59.0881 35.1716C59.0881 33.45 60.121 31.3841 60.6375 29.7773L59.375 29.3756C58.8585 30.9824 58.629 33.3352 57.4813 34.6551ZM41.0116 23.0058C41.0116 27.8262 44.1678 31.9006 48.9308 31.9006C53.6364 31.9006 56.7927 27.7114 56.9648 23.0058C56.9648 17.9558 54.1529 14.5127 48.9308 14.5127C44.1678 14.5127 41.0116 18.128 41.0116 23.0058Z" fill="#111111"/>
<path d="M77.7158 10.3235C80.126 8.42979 82.6509 7.9707 86.381 7.9707C92.2344 7.9707 96.7678 11.2991 96.7678 17.8411V37.5244H86.2808V22.891C86.2808 17.382 85.9866 14.9144 81.7974 14.9144C77.2066 14.9144 75.0186 17.382 75.0186 22.891V37.5244H68.0176V8.83149H75.0186V9.29058C75.0186 11.586 73.8709 14.3405 73.0101 16.5212L74.2152 17.0377C75.076 14.857 75.8794 11.7582 77.7158 10.3235Z" fill="#111111"/>
<path d="M123.664 11.2221V0.057385L130.722 0V37.6196L123.664 37.6769V35.611C123.664 33.8895 124.639 31.881 125.213 30.2168L123.951 29.8151C123.434 31.4793 123.147 33.8321 121.942 35.0372C119.819 37.2752 116.892 38.5951 113.047 38.5951C104.44 38.5951 98.5288 31.9384 98.7009 23.4453C98.8731 15.1817 104.726 8.12327 112.99 8.12327C116.835 8.12327 119.819 9.6153 121.885 11.8533C123.09 13.0584 123.434 15.4113 124.008 17.0181L125.213 16.6164C124.639 14.9522 123.664 12.9437 123.664 11.2221ZM113.966 31.9957C119.36 31.9957 122.401 28.3804 122.401 23.56C122.401 18.6823 119.36 14.6652 113.966 14.6652C108.571 14.6652 105.702 18.6823 105.702 23.56C105.702 28.3804 108.571 31.9957 113.966 31.9957Z" fill="#111111"/>
<path d="M156.179 34.6551C154.055 37.0079 151.071 38.4425 147.226 38.4425C138.676 38.4425 132.65 31.5563 132.65 23.0058C132.65 14.4553 138.676 7.9707 147.226 7.9707C151.071 7.9707 154.055 9.29058 156.121 11.5286C157.326 12.7911 157.556 15.1439 158.13 16.8081L159.335 16.4064C158.818 14.7422 157.785 12.7337 157.785 11.0122L157.728 8.83149H164.786V37.5244H157.728L157.785 35.1716C157.785 33.45 158.818 31.3841 159.335 29.7773L158.072 29.3756C157.556 30.9824 157.326 33.3352 156.179 34.6551ZM139.709 23.0058C139.709 27.8262 142.865 31.9006 147.628 31.9006C152.334 31.9006 155.49 27.7114 155.662 23.0058C155.662 17.9558 152.85 14.5127 147.628 14.5127C142.865 14.5127 139.709 18.128 139.709 23.0058Z" fill="#111111"/>
<path d="M122.869 48.6087C120.469 48.6087 118.609 46.6527 118.609 44.1087C118.609 41.5767 120.469 39.6327 122.869 39.6327C125.029 39.6327 126.757 41.0727 127.081 43.1967H125.677C125.437 41.8047 124.309 40.8207 122.881 40.8207C121.177 40.8207 119.977 42.2007 119.977 44.1087C119.977 46.0407 121.177 47.4207 122.881 47.4207C124.309 47.4207 125.437 46.4247 125.677 45.0327H127.081C126.757 47.1687 125.029 48.6087 122.869 48.6087ZM131.021 48.5487C129.221 48.5487 127.901 47.1327 127.901 45.2487C127.901 43.3647 129.221 41.9487 131.021 41.9487C132.821 41.9487 134.141 43.3647 134.141 45.2487C134.141 47.1327 132.821 48.5487 131.021 48.5487ZM131.021 47.4807C132.065 47.4807 132.893 46.6407 132.893 45.2487C132.893 43.8567 132.065 43.0287 131.021 43.0287C129.977 43.0287 129.161 43.8567 129.161 45.2487C129.161 46.6407 129.977 47.4807 131.021 47.4807ZM136.588 44.8407V48.4287H135.376V42.0687H136.504V43.1247C136.936 42.4167 137.656 41.9487 138.532 41.9487C139.84 41.9487 140.704 42.7887 140.704 44.3127V48.4287H139.492V44.7207C139.492 43.6287 139.012 43.0167 138.112 43.0167C137.284 43.0167 136.588 43.7127 136.588 44.8407ZM147.354 46.5327C147.354 47.7807 146.382 48.5487 144.69 48.5487C143.01 48.5487 142.014 47.7207 141.894 46.3527H143.058C143.106 47.1447 143.742 47.6367 144.714 47.6367C145.566 47.6367 146.13 47.3367 146.13 46.7367C146.13 46.2087 145.806 45.9807 145.014 45.8247L143.982 45.6327C142.806 45.4047 142.146 44.8047 142.146 43.8447C142.146 42.7287 143.118 41.9487 144.594 41.9487C146.118 41.9487 147.15 42.7647 147.258 44.0727H146.094C146.022 43.3047 145.458 42.8607 144.606 42.8607C143.838 42.8607 143.322 43.1847 143.322 43.7367C143.322 44.2527 143.646 44.4927 144.414 44.6367L145.494 44.8407C146.754 45.0687 147.354 45.6207 147.354 46.5327ZM151.341 48.5487C149.541 48.5487 148.221 47.1327 148.221 45.2487C148.221 43.3647 149.541 41.9487 151.341 41.9487C153.141 41.9487 154.461 43.3647 154.461 45.2487C154.461 47.1327 153.141 48.5487 151.341 48.5487ZM151.341 47.4807C152.385 47.4807 153.213 46.6407 153.213 45.2487C153.213 43.8567 152.385 43.0287 151.341 43.0287C150.297 43.0287 149.481 43.8567 149.481 45.2487C149.481 46.6407 150.297 47.4807 151.341 47.4807ZM156.921 48.4287H155.697V39.8127H156.921V48.4287ZM161.219 48.5487C159.383 48.5487 158.147 47.2167 158.147 45.2127C158.147 43.3287 159.431 41.9487 161.183 41.9487C163.079 41.9487 164.339 43.4847 164.123 45.5487H159.383C159.479 46.8447 160.127 47.6007 161.195 47.6007C162.095 47.6007 162.719 47.1087 162.923 46.2807H164.123C163.811 47.6967 162.719 48.5487 161.219 48.5487ZM161.159 42.8607C160.187 42.8607 159.527 43.5567 159.395 44.7447H162.839C162.779 43.5687 162.143 42.8607 161.159 42.8607Z" fill="#2B39C7"/>
</svg>
