<svg width="172" height="147" viewBox="0 0 172 147" fill="none" xmlns="http://www.w3.org/2000/svg">
<path d="M8.70969 45.0747L9.22268 59.765L1.95407 55.9659L0.36394 10.4304L7.63255 14.2296L7.71667 16.6383C7.78676 18.6456 6.86361 20.4531 6.34024 22.0791L7.59797 23.2075C8.12135 21.5815 8.32112 18.9953 9.45432 18.2189C11.5504 16.7724 14.5705 16.8679 18.5311 18.9738C27.3982 23.6884 33.7579 34.6873 33.9263 44.4956C34.0263 54.0048 28.3433 59.0601 19.7718 54.5026C15.8704 52.4281 12.7357 49.0541 10.4574 45.2817C9.16694 43.2165 8.77557 40.3161 8.11902 38.1283L6.89399 37.9366C7.49377 40.1599 8.63959 43.0674 8.70969 45.0747ZM17.7926 26.0671C12.295 23.144 9.31156 25.7603 9.50783 31.3807C9.70643 37.068 13.003 43.4175 18.5005 46.3406C24.0572 49.2951 26.8493 46.183 26.6507 40.4957C26.4544 34.8754 23.3492 29.0216 17.7926 26.0671Z" fill="#BDC2EE" fill-opacity="0.2"/>
<path d="M60.6228 71.8892C58.5314 73.4696 55.5159 73.5079 51.5553 71.402C42.7474 66.7187 36.2601 55.3894 35.912 45.4199C35.5638 35.4504 41.5067 31.1899 50.3146 35.8732C54.2752 37.979 57.4028 41.1524 59.622 44.8934C60.9148 47.0254 61.2471 49.8944 61.906 52.1491L63.131 52.3408C62.5312 50.1175 61.3854 47.21 61.3153 45.2027L61.1674 42.6287L68.4383 46.4947L69.6066 79.9494L62.3357 76.0833L62.299 73.3715C62.2289 71.3642 63.2088 69.5212 63.6754 67.9307L62.3586 66.7708C61.892 68.3614 61.7513 70.9789 60.6228 71.8892ZM43.1829 49.2859C43.3792 54.9063 46.7963 61.3856 51.7027 63.9943C56.55 66.5717 59.6307 63.416 59.6164 58.0238C59.4108 52.1358 56.3741 46.5811 50.9948 43.7208C46.0884 41.1121 42.9843 43.5986 43.1829 49.2859Z" fill="#BDC2EE" fill-opacity="0.2"/>
<path d="M80.4766 54.603C82.8822 53.7151 85.4645 54.5628 89.3069 56.6058C95.3365 59.8118 100.142 66.1756 100.408 73.8033L101.21 96.7531L90.407 91.0092L89.8112 73.9473C89.5869 67.5241 89.1833 64.4858 84.8681 62.1913C80.139 59.6768 77.9856 61.3556 78.21 67.7789L78.8058 84.8407L71.5939 81.0061L70.4257 47.5515L77.6375 51.3861L77.6562 51.9214C77.7497 54.5977 76.6795 57.1808 75.8816 59.2518L77.144 60.5141C77.942 58.443 78.6434 55.2699 80.4766 54.603Z" fill="#BDC2EE" fill-opacity="0.2"/>
<path d="M127.843 80.8166L127.388 67.7991L134.657 71.5982L136.189 115.461L128.92 111.662L128.836 109.253C128.766 107.246 129.689 105.438 130.212 103.812L128.896 102.652C128.431 104.31 128.232 106.896 127.039 107.641C124.943 109.088 121.982 109.023 118.022 106.918C109.155 102.203 102.795 91.2041 102.626 81.3958C102.467 71.8551 108.209 66.8313 116.722 71.3574C120.682 73.4632 123.817 76.8373 126.036 80.5783C127.327 82.6434 127.777 85.5753 128.434 87.7631L129.659 87.9548C129 85.7001 127.913 82.8239 127.843 80.8166ZM118.699 99.7259C124.255 102.68 127.241 100.131 127.045 94.5107C126.846 88.8234 123.55 82.4739 117.993 79.5193C112.436 76.5648 109.644 79.6769 109.843 85.3642C110.039 90.9846 113.142 96.7714 118.699 99.7259Z" fill="#BDC2EE" fill-opacity="0.2"/>
<path d="M162.291 125.948C160.199 127.528 157.184 127.566 153.223 125.461C144.415 120.777 137.928 109.448 137.58 99.4785C137.232 89.509 143.175 85.2485 151.983 89.9318C155.943 92.0376 159.071 95.211 161.29 98.952C162.583 101.084 162.915 103.953 163.574 106.208L164.799 106.399C164.199 104.176 163.053 101.269 162.983 99.2613L162.835 96.6873L170.106 100.553L171.275 134.008L164.004 130.142L163.967 127.43C163.897 125.423 164.877 123.58 165.343 121.989L164.027 120.829C163.56 122.42 163.419 125.038 162.291 125.948ZM144.851 103.345C145.047 108.965 148.464 115.444 153.371 118.053C158.218 120.63 161.299 117.475 161.284 112.082C161.079 106.194 158.042 100.64 152.663 97.7794C147.756 95.1706 144.652 97.6572 144.851 103.345Z" fill="#BDC2EE" fill-opacity="0.2"/>
</svg>
