<svg width="79" height="33" viewBox="0 0 79 33" fill="none" xmlns="http://www.w3.org/2000/svg">
<path d="M3.3712 16.8793V22.8969L0 22.9244V4.2716L3.3712 4.24419V5.23089C3.3712 6.05313 2.90526 7.01241 2.63118 7.80725L3.20675 7.99911C3.48083 7.20427 3.61787 6.08054 4.16603 5.50497C5.18014 4.43605 6.60536 3.80566 8.4417 3.80566C12.5529 3.80566 15.376 6.98501 15.2937 11.0414C15.1841 14.9882 12.4159 18.3594 8.4417 18.3594C6.63277 18.3594 5.20754 17.6468 4.19344 16.5779C3.61787 16.0023 3.48083 14.8785 3.20675 14.1111L2.63118 14.303C2.87785 15.0978 3.3712 16.0571 3.3712 16.8793ZM7.97576 6.93019C5.42681 6.93019 3.97418 8.68431 3.97418 10.9866C3.97418 13.3163 5.42681 15.2349 7.97576 15.2349C10.5521 15.2349 11.9225 13.3163 11.9225 10.9866C11.9225 8.68431 10.5521 6.93019 7.97576 6.93019Z" fill="white"/>
<path d="M27.4551 16.5504C26.441 17.6742 25.0158 18.3594 23.1794 18.3594C19.0956 18.3594 16.2178 15.0704 16.2178 10.9866C16.2178 6.90278 19.0956 3.80566 23.1794 3.80566C25.0158 3.80566 26.441 4.43605 27.4277 5.50497C28.0033 6.10795 28.1129 7.23168 28.387 8.02652L28.9626 7.83466C28.7159 7.03982 28.2225 6.08054 28.2225 5.2583L28.1951 4.21679H31.5663V17.9208H28.1951L28.2225 16.7971C28.2225 15.9749 28.7159 14.9882 28.9626 14.2208L28.3596 14.0289C28.1129 14.7963 28.0033 15.9201 27.4551 16.5504ZM19.589 10.9866C19.589 13.2889 21.0964 15.2349 23.3713 15.2349C25.6188 15.2349 27.1262 13.2341 27.2084 10.9866C27.2084 8.57468 25.8654 6.93019 23.3713 6.93019C21.0964 6.93019 19.589 8.6569 19.589 10.9866Z" fill="white"/>
<path d="M37.1183 4.9294C38.2694 4.02493 39.4754 3.80566 41.2569 3.80566C44.0526 3.80566 46.2178 5.39534 46.2178 8.51986V17.9208H41.2091V10.9318C41.2091 8.3006 41.0686 7.12205 39.0678 7.12205C36.8751 7.12205 35.8301 8.3006 35.8301 10.9318V17.9208H32.4863V4.21679H35.8301V4.43605C35.8301 5.53238 35.282 6.84797 34.8708 7.88948L35.4464 8.13615C35.8575 7.09464 36.2412 5.6146 37.1183 4.9294Z" fill="white"/>
<path d="M59.0639 5.35981V0.0274078L62.4351 0V17.9675L59.0639 17.995V17.0083C59.0639 16.186 59.5299 15.2267 59.804 14.4319L59.201 14.24C58.9543 15.0349 58.8173 16.1586 58.2417 16.7342C57.2276 17.8031 55.8298 18.4335 53.9934 18.4335C49.8822 18.4335 47.0592 15.2541 47.1414 11.1977C47.2236 7.25097 50.0193 3.87977 53.966 3.87977C55.8024 3.87977 57.2276 4.59238 58.2143 5.6613C58.7899 6.23687 58.9543 7.3606 59.2284 8.12803L59.804 7.93617C59.5299 7.14134 59.0639 6.18205 59.0639 5.35981ZM54.432 15.2816C57.0083 15.2816 58.461 13.5548 58.461 11.2526C58.461 8.92287 57.0083 7.0043 54.432 7.0043C51.8556 7.0043 50.4852 8.92287 50.4852 11.2526C50.4852 13.5548 51.8556 15.2816 54.432 15.2816Z" fill="white"/>
<path d="M74.5928 16.5504C73.5787 17.6742 72.1535 18.3594 70.3171 18.3594C66.2333 18.3594 63.3555 15.0704 63.3555 10.9866C63.3555 6.90278 66.2333 3.80566 70.3171 3.80566C72.1535 3.80566 73.5787 4.43605 74.5654 5.50497C75.141 6.10795 75.2506 7.23168 75.5247 8.02652L76.1002 7.83466C75.8536 7.03982 75.3602 6.08054 75.3602 5.2583L75.3328 4.21679H78.704V17.9208H75.3328L75.3602 16.7971C75.3602 15.9749 75.8536 14.9882 76.1002 14.2208L75.4973 14.0289C75.2506 14.7963 75.141 15.9201 74.5928 16.5504ZM66.7267 10.9866C66.7267 13.2889 68.2341 15.2349 70.509 15.2349C72.7565 15.2349 74.2639 13.2341 74.3461 10.9866C74.3461 8.57468 73.0031 6.93019 70.509 6.93019C68.2341 6.93019 66.7267 8.6569 66.7267 10.9866Z" fill="white"/>
<path d="M26.2273 28.8625C26.2273 30.0906 25.2448 31.024 23.5353 31.024C21.8355 31.024 20.8039 30.0906 20.7154 28.6856H21.8158C21.865 29.5797 22.4348 30.1594 23.5156 30.1594C24.4097 30.1594 25.0778 29.7369 25.0778 29.0099C25.0778 28.4204 24.6946 28.1256 23.8791 27.9488L22.8573 27.7523C21.865 27.5558 20.9611 27.0547 20.9611 25.856C20.9611 24.6672 22.0025 23.7731 23.4665 23.7731C24.9304 23.7731 26.0407 24.6672 26.1291 26.0722H25.0287C24.9697 25.2272 24.3606 24.6377 23.4763 24.6377C22.5626 24.6377 22.0615 25.1781 22.0615 25.7872C22.0615 26.4553 22.6412 26.6911 23.2994 26.8287L24.3409 27.035C25.5494 27.2806 26.2273 27.8112 26.2273 28.8625ZM30.5561 28.7839V25.7184H31.5484V30.9258H30.6249V30.1005C30.3498 30.6409 29.7406 31.024 29.0332 31.024C27.9819 31.024 27.2548 30.405 27.2548 29.0688V25.7184H28.2472V28.8723C28.2472 29.7762 28.6991 30.1496 29.3476 30.1496C30.0157 30.1496 30.5561 29.5994 30.5561 28.7839ZM37.8981 28.3221C37.8981 29.8843 36.9942 31.024 35.5892 31.024C34.8523 31.024 34.2235 30.6507 33.8501 29.9924V30.9258H32.9266V23.8713H33.9189V26.6125C34.2824 25.9739 34.8818 25.6202 35.5892 25.6202C36.9844 25.6202 37.8981 26.7403 37.8981 28.3221ZM36.8665 28.3221C36.8665 27.1431 36.2475 26.4946 35.3927 26.4946C34.5674 26.4946 33.9189 27.1333 33.9189 28.3025C33.9189 29.452 34.5477 30.1398 35.3927 30.1398C36.2475 30.1398 36.8665 29.4815 36.8665 28.3221ZM43.0307 29.3734C43.0307 30.3952 42.2349 31.024 40.8496 31.024C39.474 31.024 38.6586 30.3461 38.5603 29.226H39.5133C39.5526 29.8745 40.0734 30.2773 40.8692 30.2773C41.5668 30.2773 42.0286 30.0317 42.0286 29.5404C42.0286 29.1081 41.7633 28.9214 41.1148 28.7937L40.2699 28.6365C39.307 28.4498 38.7666 27.9586 38.7666 27.1726C38.7666 26.2588 39.5625 25.6202 40.771 25.6202C42.0188 25.6202 42.8637 26.2883 42.9521 27.3592H41.9991C41.9402 26.7304 41.4784 26.3669 40.7808 26.3669C40.152 26.3669 39.7295 26.6322 39.7295 27.0841C39.7295 27.5066 39.9948 27.7031 40.6236 27.821L41.5078 27.9881C42.5395 28.1747 43.0307 28.6267 43.0307 29.3734ZM46.1677 31.0339C44.743 31.0339 43.7408 29.9138 43.7408 28.3221C43.7408 26.7501 44.7627 25.6202 46.1677 25.6202C47.4548 25.6202 48.3881 26.475 48.5748 27.8309H47.5334C47.4253 26.9957 46.9045 26.4946 46.1775 26.4946C45.3227 26.4946 44.7627 27.2217 44.7627 28.3221C44.7627 29.4324 45.3227 30.1496 46.1775 30.1496C46.9144 30.1496 47.4253 29.6583 47.5432 28.8134H48.5748C48.398 30.1889 47.4744 31.0339 46.1677 31.0339ZM50.566 28.2632V30.9258H49.5737V25.7184H50.4973V26.8189C50.8608 26.1016 51.6468 25.6497 52.5016 25.6497V26.6813C51.3815 26.6224 50.566 27.1136 50.566 28.2632ZM54.4954 24.51C54.4954 24.8833 54.2006 25.1682 53.7782 25.1682C53.3557 25.1682 53.0511 24.8833 53.0511 24.51C53.0511 24.1268 53.3557 23.8517 53.7782 23.8517C54.2006 23.8517 54.4954 24.1268 54.4954 24.51ZM54.2793 30.9258H53.2869V25.7184H54.2793V30.9258ZM60.6284 28.3221C60.6284 29.8941 59.7245 31.024 58.3293 31.024C57.6219 31.024 57.0225 30.6703 56.6492 30.0415V32.822H55.6568V25.7184H56.5804V26.6715C56.9538 26.0034 57.5924 25.6202 58.3293 25.6202C59.7146 25.6202 60.6284 26.7501 60.6284 28.3221ZM59.5967 28.3221C59.5967 27.1529 58.9778 26.4946 58.123 26.4946C57.2976 26.4946 56.6492 27.1529 56.6492 28.3221C56.6492 29.4717 57.2878 30.1398 58.123 30.1398C58.9778 30.1398 59.5967 29.4913 59.5967 28.3221ZM64.4954 29.9629V30.8374C64.1908 30.9749 63.9256 31.024 63.6112 31.024C62.6483 31.024 61.9802 30.5033 61.9802 29.3538V26.5634H60.8306V25.7184H61.9802V24.1759H62.9725V25.7184H64.5445V26.5634H62.9725V29.1278C62.9725 29.845 63.3164 30.1005 63.847 30.1005C64.0828 30.1005 64.2891 30.0612 64.4954 29.9629ZM66.7001 24.51C66.7001 24.8833 66.4053 25.1682 65.9829 25.1682C65.5604 25.1682 65.2558 24.8833 65.2558 24.51C65.2558 24.1268 65.5604 23.8517 65.9829 23.8517C66.4053 23.8517 66.7001 24.1268 66.7001 24.51ZM66.4839 30.9258H65.4916V25.7184H66.4839V30.9258ZM70.0427 31.024C68.5689 31.024 67.4882 29.8647 67.4882 28.3221C67.4882 26.7796 68.5689 25.6202 70.0427 25.6202C71.5165 25.6202 72.5973 26.7796 72.5973 28.3221C72.5973 29.8647 71.5165 31.024 70.0427 31.024ZM70.0427 30.1496C70.8975 30.1496 71.5754 29.4618 71.5754 28.3221C71.5754 27.1824 70.8975 26.5045 70.0427 26.5045C69.1879 26.5045 68.5198 27.1824 68.5198 28.3221C68.5198 29.4618 69.1879 30.1496 70.0427 30.1496ZM74.6012 27.9881V30.9258H73.6089V25.7184H74.5324V26.5831C74.8861 26.0034 75.4757 25.6202 76.1929 25.6202C77.2638 25.6202 77.9712 26.308 77.9712 27.5558V30.9258H76.9789V27.8898C76.9789 26.9957 76.5859 26.4946 75.849 26.4946C75.1711 26.4946 74.6012 27.0645 74.6012 27.9881Z" fill="white"/>
</svg>
